<svg id="svg" xmlns="http://www.w3.org/2000/svg" xmlns:xlink="http://www.w3.org/1999/xlink" width="400" height="400" viewBox="0, 0, 400,400"><g id="svgg"><path id="path0" d="M56.615 40.615 C 42.673 54.558,32.000 73.636,32.000 84.615 C 32.000 107.462,31.686 107.382,61.086 92.049 C 85.839 79.140,144.000 75.582,144.000 86.978 C 144.000 90.815,130.134 96.172,113.186 98.882 C 64.716 106.633,40.000 136.922,40.000 188.570 C 40.000 258.919,64.591 299.947,75.898 248.463 C 88.439 191.364,156.473 128.088,205.386 128.030 C 250.125 127.977,319.619 211.689,319.922 266.000 C 320.053 289.420,336.119 281.669,348.408 252.257 C 385.451 163.601,347.216 97.091,258.257 95.438 C 234.045 94.988,231.197 93.502,244.000 88.000 C 273.084 75.502,323.005 79.453,350.902 96.461 C 383.315 116.221,389.408 112.370,376.197 80.475 C 348.943 14.679,288.239 -4.363,230.547 34.788 L 202.862 53.576 179.431 34.828 C 143.270 5.894,88.769 8.462,56.615 40.615 M184.000 162.548 C 184.000 238.410,134.464 324.813,72.100 357.730 L 36.201 376.678 107.905 374.339 L 179.609 372.000 203.702 324.000 C 223.784 283.988,228.276 264.350,230.693 206.000 L 233.592 136.000 208.796 136.000 C 186.049 136.000,184.000 138.194,184.000 162.548 " stroke="none" fill="#6FA545" fill-rule="evenodd"></path></g></svg>